<?xml version="1.0" encoding="utf-8"?>
<!-- Generator: Adobe Illustrator 16.0.4, SVG Export Plug-In . SVG Version: 6.00 Build 0)  -->
<!DOCTYPE svg PUBLIC "-//W3C//DTD SVG 1.1//EN" "http://www.w3.org/Graphics/SVG/1.1/DTD/svg11.dtd">
<svg version="1.1" id="Layer_1" xmlns="http://www.w3.org/2000/svg" xmlns:xlink="http://www.w3.org/1999/xlink" x="0px" y="0px"
	 width="1032px" height="1032px" viewBox="0 0 1032 1032" enable-background="new 0 0 1032 1032" xml:space="preserve">
<g>
	<defs>
		<path id="SVGID_1_" d="M456.011,467.993H84.27c-33.114,0-59.958,26.841-59.958,59.958c0,33.117,26.844,59.957,59.958,59.957
			h371.741v383.732c0,33.118,26.845,59.959,59.958,59.959c33.118,0,59.959-26.841,59.959-59.959V587.908h371.74
			c33.118,0,59.958-26.84,59.958-59.957c0-33.118-26.84-59.958-59.958-59.958h-371.74v-41.862l315.241-84.074
			c32.001-8.533,51.02-41.393,42.479-73.386c-8.526-31.993-41.378-51.019-73.379-42.486l-284.341,75.838V256.57l167.562-87.135
			c29.378-15.278,40.808-51.48,25.537-80.857c-15.278-29.378-51.48-40.815-80.858-25.538l-112.241,58.366V60.277
			c0-33.117-26.841-59.958-59.959-59.958c-33.113,0-59.958,26.841-59.958,59.958v61.129L343.769,63.04
			c-29.378-15.278-65.579-3.84-80.858,25.538c-15.274,29.377-3.845,65.579,25.537,80.857l167.562,87.135v45.437l-284.344-75.822
			c-31.994-8.533-64.85,10.493-73.378,42.486c-8.533,32.001,10.489,64.854,42.486,73.386l315.237,84.051V467.993z"/>
	</defs>
	<clipPath id="SVGID_2_">
		<use xlink:href="#SVGID_1_"  overflow="visible"/>
	</clipPath>
	<rect x="-15.66" y="-39.653" clip-path="url(#SVGID_2_)" width="1063.259" height="1111.225"/>
</g>
</svg>
