<svg xmlns="http://www.w3.org/2000/svg" width="120" height="117" viewBox="0 0 120 117">
  <g fill="none" fill-rule="evenodd">
    <rect width="120" height="180"/>
    <g transform="translate(38 25)">
      <path fill="#EAF2E9" fill-opacity=".4" d="M44,74.5660377 L44,30.8301887 C44,28.8503 36.2489465,26.5283019 22,26.5283019 C7.75105346,26.5283019 0,28.8503 0,30.8301887 L0,74.5660377 C0,74.5660377 7.66666667,71.6981132 22,71.6981132 C36.3333333,71.6981132 44,74.5660377 44,74.5660377 Z" transform="matrix(1 0 0 -1 0 101.094)"/>
      <path stroke="#A4BA92" d="M0.5,10.3207547 L0.5,70.2641509 C0.5,72.2295104 10.24492,74.7830189 22.5,74.7830189 C34.647149,74.7830189 43.5,72.3018952 43.5,70.2641509 L43.5,10.3207547 C43.5,9.35081071 41.2373857,6.82344965 38.0776677,4.84148761 C33.7577048,2.13175133 28.2768221,0.5 22,0.5 C15.7231779,0.5 10.2422952,2.13175133 5.92233228,4.84148761 C2.7626143,6.82344965 0.5,9.35081071 0.5,10.3207547 Z"/>
      <path stroke="#A4BA92" d="M27.2366862,74.7602135 C27.2366862,74.5478385 27.2366862,74.2173397 27.2366862,73.6025016 L27.2366862,71.4632623 C27.2366862,70.7729475 27.2366862,70.6129921 27.2366862,70.1951816 C25.5732233,70.0972218 23.8327359,70.0471698 22.0033529,70.0471698 C20.1732771,70.0471698 18.4305942,70.0970801 16.7700195,70.194611 C16.7700195,70.7044335 16.7700195,70.8725544 16.7700195,71.7037295 C16.7700195,73.7656496 16.7700195,74.2438235 16.7700195,74.7602035 C16.7972177,74.7590283 16.8251963,74.7578234 16.8539338,74.7565908 C17.3250599,74.7363828 17.8284881,74.716176 18.3436784,74.6973139 C18.8503678,74.6787631 19.3417324,74.6625125 19.8079314,74.6492086 C20.6732797,74.6245141 21.4167656,74.6109395 22.0025382,74.6109395 C22.5885231,74.6109395 23.3324597,74.6245239 24.1984317,74.649235 C24.6644826,74.6625341 25.1556837,74.6787754 25.6622063,74.6973137 C26.177574,74.7161757 26.6811924,74.7363825 27.1525087,74.7565904 C27.1813385,74.7578265 27.2094049,74.7590347 27.2366862,74.7602135 Z" transform="matrix(1 0 0 -1 0 144.83)"/>
      <path fill="#A4BA92" fill-rule="nonzero" d="M.000277679892 10.3C.0000925772066 10.3069938 1.55431223e-15 10.3139123 1.55431223e-15 10.3207547 1.93791585e-15 12.3006434 7.75105346 13.9056604 22 13.9056604 36.2489465 13.9056604 44 12.3006434 44 10.3207547 44 10.3139123 43.9999074 10.3069938 43.9997223 10.3L42.9994595 10.3C42.9998195 10.3070568 43 10.3139756 43 10.3207547 43 10.3093193 42.7822518 10.5212517 42.1545314 10.8048544 41.2848686 11.1977662 39.9372462 11.5625179 38.1715051 11.8705427 34.3512893 12.5369602 28.8018285 12.9056604 22 12.9056604 15.1981715 12.9056604 9.64871075 12.5369602 5.82849486 11.8705427 4.06275376 11.5625179 2.71513138 11.1977662 1.84546861 10.8048544 1.21774824 10.5212517 1 10.3093193 1 10.3207547 1 10.3139756 1.00018051 10.3070568 1.00054053 10.3L.000277679892 10.3zM17.4075666.300000012C18.8536997.107133853 20.3851189-1.77635684e-15 22-1.77635684e-15 23.6148811-1.77635684e-15 25.1463003.107133853 26.5924334.300000012L17.4075666.300000012zM.00027767516 26.3000002C.0000925756286 26.3069939-1.22124533e-15 26.3139123-1.22124533e-15 26.3207547-8.8817842e-16 28.3006434 7.75105346 29.9056604 22 29.9056604 36.2489465 29.9056604 44 28.3006434 44 26.3207547 44 26.3139123 43.9999074 26.3069939 43.9997223 26.3000002L42.9994595 26.3000002C42.9998195 26.3070569 43 26.3139757 43 26.3207547 43 26.3093193 42.7822518 26.5212517 42.1545314 26.8048544 41.2848686 27.1977662 39.9372462 27.5625179 38.1715051 27.8705427 34.3512893 28.5369602 28.8018285 28.9056604 22 28.9056604 15.1981715 28.9056604 9.64871075 28.5369602 5.82849486 27.8705427 4.06275376 27.5625179 2.71513138 27.1977662 1.84546861 26.8048544 1.21774824 26.5212517 1 26.3093193 1 26.3207547 1 26.3139757 1.0001805 26.3070569 1.00054052 26.3000002L.00027767516 26.3000002z"/>
    </g>
  </g>
</svg>
