<svg xmlns="http://www.w3.org/2000/svg" width="120" height="117" viewBox="0 0 120 117">
  <g fill="none" fill-rule="evenodd">
    <rect width="120" height="180"/>
    <g transform="translate(48 19.33)">
      <path fill="#EAF2E9" fill-opacity=".4" d="M24,83 C24,83 23.9769231,26.2768409 24,24 C23.9769231,22.320174 20.7327959,20 12,20 C3.26720406,20 0.0230769231,22.320174 0,24 C0.0230769231,26.2768409 0,83 0,83 C0,83 2.05164147,79.9756985 12,80 C21.9483585,80.0243015 24,83 24,83 Z" transform="matrix(1 0 0 -1 0 103)"/>
      <path fill="#A4BA92" fill-rule="nonzero" d="M24 16L24 79C24 80.9724455 18.7489465 83 12 83 5.25105346 83 0 80.9724455 0 79L0 16C0 16 2.69304765 16 2.97602713 13.4484421 5.07870193 14.268486 8.19528829 14.8301887 12 14.8301887 15.8047117 14.8301887 18.9212981 14.268486 21.0239729 13.4484421 21.3069523 16 24 16 24 16zM20.337669 14.7448132C18.0883541 15.4401445 15.2022429 15.8301887 12 15.8301887 8.79775715 15.8301887 5.91164589 15.4401445 3.66233103 14.7448132 3.31493218 15.5428872 2.71675717 16.1346554 1.9472136 16.5194272 1.62214044 16.6819638 1.30143109 16.7952753 1 16.8708658L1 79C1 79.3929724 1.98161008 80.1606356 3.79899259 80.7956329 5.96388967 81.5520525 8.88668 82 12 82 15.11332 82 18.0361103 81.5520525 20.2010074 80.7956329 22.0183899 80.1606356 23 79.3929724 23 79L23 16.8643571C22.6792085 16.785915 22.3607012 16.6733846 22.0527864 16.5194272 21.2832428 16.1346554 20.6850678 15.5428872 20.337669 14.7448132zM19.9000821 3.80480132C22.7713253 4.58917921 24 5.89636745 24 7.5 24 10.1568542 20.627417 12 12 12 3.372583 12 4.3382774e-16 10.1568542 0 7.5 0 5.89591496 1.22936817 4.58844154 4.10234879 3.80413746 4.13185297 4.16071546 4.15986126 4.49872929 4.18637366 4.81817897 1.95561078 5.45575599 1 6.37947468 1 7.5 1 9.58830097 4.42124577 11 12 11 19.5787542 11 23 9.58830097 23 7.5 23 6.37992906 22.0461856 5.45726165 19.8157434 4.81894258 19.8423033 4.50007571 19.8704162 4.16202862 19.9000821 3.80480132z"/>
      <path fill="#A4BA92" fill-rule="nonzero" d="M23.9953215,16 C23.8528235,18.5651962 20.4422662,20.3300802 12,20.3300802 C3.55773383,20.3300802 0.1471765,18.5651962 0.00467847259,16 L1.00770246,16 C1.19037624,17.9945934 4.62865781,19.3300802 12,19.3300802 C19.3713422,19.3300802 22.8096238,17.9945934 22.9922975,16 L23.9953215,16 Z"/>
      <path fill="#A4BA92" fill-rule="nonzero" d="M1.65155499,13.8232065 C0.575887069,14.5108574 0.058362849,15.3636742 0.00467847259,16.3300802 L1.00770246,16.3300802 C1.07848565,15.5572069 1.63807867,14.8832945 2.72589464,14.3476937 C2.32687211,14.181686 1.96792201,14.0060776 1.65155499,13.8232065 Z M22.348445,13.8232065 C23.4241129,14.5108574 23.9416372,15.3636742 23.9953215,16.3300802 L22.9922975,16.3300802 C22.9215143,15.5572069 22.3619213,14.8832945 21.2741054,14.3476937 C21.6731279,14.181686 22.032078,14.0060776 22.348445,13.8232065 Z"/>
      <path fill="#A4BA92" fill-rule="nonzero" d="M1,23.8301887 L0,23.8301887 L0,20.3396226 C0,18.3597339 4.75105346,16.3207547 12,16.3207547 C19.2489465,16.3207547 24,18.3597339 24,20.3396226 L24,23.8301887 L23,23.8301887 L23,20.3396226 C23,19.9032689 22.1082833,19.1537668 20.3782707,18.5281254 C18.2709434,17.766032 15.3341183,17.3207547 12,17.3207547 C8.66588174,17.3207547 5.72905662,17.766032 3.62172927,18.5281254 C1.89171666,19.1537668 1,19.9032689 1,20.3396226 L1,23.8301887 Z M0,23.8301887 L0,20.3396226 C0,18.3597339 4.75105346,16.3207547 12,16.3207547 C19.2489465,16.3207547 24,18.3597339 24,20.3396226 L24,23.8301887 L23,23.8301887 L23,20.3396226 C23,19.9032689 22.1082833,19.1537668 20.3782707,18.5281254 C18.2709434,17.766032 15.3341183,17.3207547 12,17.3207547 C8.66588174,17.3207547 5.72905662,17.766032 3.62172927,18.5281254 C1.89171666,19.1537668 1,19.9032689 1,20.3396226 L1,23.8301887 L0,23.8301887 Z" transform="rotate(180 12 20.075)"/>
      <path fill="#A4BA92" fill-rule="nonzero" d="M1,15.8301887 L-3.55271368e-15,15.8301887 L-7.88860905e-31,11.6888661 C-7.88860905e-31,9.70897737 4.75105346,7.66999817 12,7.66999817 C19.2489465,7.66999817 24,9.70897737 24,11.6888661 L24,15.8301887 L23,15.8301887 L23,11.6888661 C23,11.2525123 22.1082833,10.5030102 20.3782707,9.87736884 C18.2709434,9.11527546 15.3341183,8.66999817 12,8.66999817 C8.66588174,8.66999817 5.72905662,9.11527546 3.62172927,9.87736884 C1.89171666,10.5030102 1,11.2525123 1,11.6888661 L1,15.8301887 Z M0,15.1794321 L0,11.6888661 C0,9.70897737 4.75105346,7.66999817 12,7.66999817 C19.2489465,7.66999817 24,9.70897737 24,11.6888661 L24,15.1794321 L23,15.1794321 L23,11.6888661 C23,11.2525123 22.1082833,10.5030102 20.3782707,9.87736884 C18.2709434,9.11527546 15.3341183,8.66999817 12,8.66999817 C8.66588174,8.66999817 5.72905662,9.11527546 3.62172927,9.87736884 C1.89171666,10.5030102 1,11.2525123 1,11.6888661 L1,15.1794321 L0,15.1794321 Z" transform="rotate(180 12 11.75)"/>
      <path stroke="#A4BA92" d="M4.52306358,2.8264521 L4.51004268,2.8760323 C4.51657321,2.85116575 4.51989215,2.82557336 4.51989215,2.79999847 C4.5197252,2.78774471 4.5197252,2.78774471 4.51889131,2.77551821 C4.52028325,2.79251302 4.52167401,2.80949096 4.5230636,2.82645203 Z M4.5230636,2.82645203 C4.96960044,8.27682036 5.29446721,11.9851928 5.49735179,13.9486074 C5.68214959,15.7369873 7.23532901,16.3966913 10.4483615,16.4855732 C10.8814796,16.4975545 11.2317708,16.5 12,16.5 C16.5696975,16.5 18.2888601,16.017541 18.5026482,13.9486074 C18.705407,11.9864098 19.030974,8.28088714 19.4793847,2.83129778 L19.4593877,2.76379824 L19.4856114,2.63981438 C19.4951759,2.59459385 19.5,2.5481654 19.5,2.5 C19.5,1.35734616 16.5835132,0.5 12,0.5 C7.41648678,0.5 4.5,1.35734616 4.5,2.5 C4.5,2.54931746 4.5050575,2.59681976 4.51508707,2.64307569 L4.54047385,2.76015833 L4.52306358,2.8264521 Z"/>
      <path fill="#A4BA92" fill-rule="nonzero" d="M4.01216086,2.66999817 C4.23622315,4.21450937 7.53359796,5 12,5 C16.466402,5 19.7637769,4.21450937 19.9878391,2.66999817 L18.9484933,2.66999817 C18.5558734,3.32508233 15.9443905,4 12,4 C8.05560954,4 5.44412665,3.32508233 5.05150669,2.66999817 L4.01216086,2.66999817 Z"/>
    </g>
  </g>
</svg>
