<svg xmlns="http://www.w3.org/2000/svg" width="120" height="117" viewBox="0 0 120 117">
  <g fill="none" fill-rule="evenodd">
    <rect width="120" height="180"/>
    <g transform="translate(28 39)">
      <path fill="#EAF2E9" fill-opacity=".4" d="M64,63.2727273 L64,17.4376054 C64,15.4292972 46.2489465,13.073969 32,13.073969 C17.7510535,13.073969 -3.55271368e-15,15.4292972 -3.55271368e-15,17.4376054 L0,63.2727273 C0,63.2727273 13.2927235,60.9830599 32,60.9830599 C50.7072765,60.9830599 64,63.2727273 64,63.2727273 Z" transform="matrix(1 0 0 -1 0 76.347)"/>
      <path stroke="#A4BA92" d="M0.5,4 L0.5,59.5454545 C0.5,60.044516 4.64773818,61.0945565 10.7182168,61.8478302 C17.1282769,62.6432419 25.1094857,63.1363636 32,63.1363636 C38.8905143,63.1363636 46.8717231,62.6432419 53.2817832,61.8478302 C59.3522618,61.0945565 63.5,60.044516 63.5,59.5454545 L63.5,4 C63.5,3.51768265 59.4004235,2.57242413 53.2907411,1.92592669 C47.0387991,1.26437601 39.0507516,0.863636364 32,0.863636364 C24.9492484,0.863636364 16.9612009,1.26437601 10.7092589,1.92592669 C4.59957651,2.57242413 0.5,3.51768265 0.5,4 Z"/>
      <path fill="#A4BA92" fill-rule="nonzero" d="M.0000594079199 4C.0000198109926 4.00212079 0 4.004242 0 4.00636364 0 6.01467182 17.7510535 7.64272728 32 7.64272728 46.2489465 7.64272728 64 6.01467182 64 4.00636364 64 4.004242 63.9999802 4.00212079 63.9999406 4L62.3360336 4C62.3420395 4.00212197 62.3480195 4.00424319 62.3539735 4.00636364 61.9466619 4.15142319 61.4178047 4.3000937 60.7790786 4.44736776 58.9854192 4.86094019 56.3966991 5.24898787 53.2381272 5.58321288 47.0041114 6.24286668 39.0335864 6.64272728 32 6.64272728 24.9664136 6.64272728 16.9958886 6.24286668 10.7618728 5.58321288 7.60330089 5.24898787 5.01458083 4.86094019 3.2209214 4.44736776 2.58219532 4.3000937 2.05333806 4.15142319 1.64602655 4.00636364 1.65198054 4.00424319 1.65796049 4.00212197 1.66396639 4L.0000551479418 4zM.526681072 12.0377336C.182974336 12.2324868 0 12.4324654 0 12.6363636 0 14.6446718 17.7510535 16.2727273 32 16.2727273 46.2489465 16.2727273 64 14.6446718 64 12.6363636 64 12.4401307 63.8305244 12.2475282 63.5113998 12.0597201 63.1931747 12.2861787 62.8113499 12.476272 62.3659254 12.63 62.3559603 12.63 62.3459964 12.63 62.3360336 12.63 62.3420395 12.632122 62.3480195 12.6342432 62.3539735 12.6363636 61.9466619 12.7814232 61.4178047 12.9300937 60.7790786 13.0773678 58.9854192 13.4909402 56.3966991 13.8789879 53.2381272 14.2132129 47.0041114 14.8728667 39.0335864 15.2727273 32 15.2727273 24.9664136 15.2727273 16.9958886 14.8728667 10.7618728 14.2132129 7.60330089 13.8789879 5.01458083 13.4909402 3.2209214 13.0773678 2.58219532 12.9300937 2.05333806 12.7814232 1.64602655 12.6363636 1.6533854 12.6337429 1.66078392 12.6311209 1.66822205 12.6284978 1.30117328 12.5098629.920659619 12.3129415.526681072 12.0377336z"/>
    </g>
  </g>
</svg>
