<svg xmlns="http://www.w3.org/2000/svg" width="120" height="117" viewBox="0 0 120 117">
  <g fill="none" fill-rule="evenodd">
    <rect width="120" height="180"/>
    <path fill="#EAF2E9" fill-opacity=".4" stroke="#A4BA92" d="M41.6433817,74.8258434 L41.6433817,69.5758434 C41.6433817,67.6836609 42.4773625,65.5335101 43.5479325,64.3550348 C45.7776359,61.8953247 48.2711471,48.5820738 48.3424312,43.518805 C48.4207587,37.9550789 48.722948,32.8118965 49.4536943,22.7766374 C49.8328276,17.5546115 49.9552823,15.6816544 49.9995734,14.0829977 C50.0478725,12.3394794 49.2351848,11.3096579 48.1372643,11.2273109 C46.9175,11.1315895 45.7231689,12.235001 45.5016493,14.0458219 C45.2594037,16.0173156 45.0331538,17.6099981 44.4679615,21.4272653 C43.5738795,27.4499221 43.1871875,30.3125357 42.820925,34.0183471 C42.7264682,34.9676982 42.1540842,35.5427778 41.4424924,35.4926936 C40.7283046,35.4441754 40.2413535,34.7941417 40.276789,33.9006638 L40.4497984,29.6174336 C40.4728017,29.0543989 40.4728017,29.0543989 40.4957174,28.4927093 C40.5362919,27.4974134 40.5675967,26.723115 40.5980024,25.9601827 C40.8370775,19.9613629 41.0116191,14.7607972 41.2095523,7.3057831 C41.2471511,5.86684382 40.9051054,4.9378092 40.3554535,4.38702169 C39.9952749,4.02607839 39.5040192,3.83255338 38.9711708,3.82570442 C38.5450401,3.83575468 38.0809253,3.98759842 37.6638903,4.36349163 C37.0226266,4.94149282 36.5966209,5.96467607 36.4994691,7.5610388 C36.1424202,13.4625586 35.9376692,17.0380248 35.6386092,22.4446251 C35.4942717,25.0383271 35.4477929,25.8588283 35.3819787,26.9468895 C35.3475073,27.5167815 35.3141557,28.0457086 35.2800253,28.5623539 C35.2056142,29.6887422 35.1250809,30.7927428 35.0248664,32.0557408 C34.9477348,33.0442114 34.3377712,33.7424059 33.6200635,33.6974304 C32.8763792,33.6671849 32.4513817,32.9756785 32.4513817,32.0758434 C32.4513817,30.8876422 32.4576545,29.8670495 32.4853956,26.051114 C32.4912626,25.2645586 32.4939312,24.9045832 32.4972496,24.4487896 C32.5201166,21.3079063 32.5334165,18.9980662 32.5397062,16.6919183 C32.5519738,12.1939866 32.532729,8.56009481 32.4724959,5.73752982 C32.4210714,3.33200707 32.0025829,1.86830166 31.2060891,1.1143681 C30.7561768,0.68949588 30.1466304,0.479220261 29.4167046,0.501543251 C27.6901762,0.561396236 26.57297,1.98128639 26.4992789,5.61697775 C26.4695885,7.08152263 26.4559684,7.76048313 26.4389694,8.63424462 C26.3687069,12.2457964 26.3219963,15.1679823 26.2941597,17.9995738 C26.2324745,24.2743281 26.2771161,29.1988661 26.4596761,32.6952903 C26.5231999,33.8897655 26.0417949,34.74665 25.2388712,34.7997698 C24.468314,34.8701664 23.8461797,34.1522847 23.7689326,33.1541947 C23.6399749,31.5207309 23.5152561,29.8682063 23.3696144,27.8783962 C23.3328295,27.3758272 23.2945876,26.8501916 23.2507907,26.2456584 C23.2162439,25.7688057 23.1829386,25.3079121 23.1146646,24.3626382 C22.6852189,18.3793173 22.4398189,15.1067098 22.0780545,10.6967095 C21.7161463,6.28355103 20.7548429,4.07653975 18.6352054,4.22576486 C16.7122189,4.35227714 15.88831,6.15432523 15.9643083,10.5802792 C16.0944074,18.1746991 16.5624742,29.1195608 16.9650032,34.5937409 C16.9993457,35.0552711 17.0331545,35.4629867 17.1015306,36.2578592 C17.4558487,40.3640904 17.4687431,41.846941 16.7960157,42.5808132 C16.6436948,42.7450809 16.4575898,42.8258434 16.2143817,42.8258434 C14.4790969,42.8258434 13.8713659,41.7423217 12.7979123,37.9127037 C12.3158189,36.1915648 12.060242,35.3675856 11.6599089,34.3600733 C11.0526391,32.8317662 10.3224107,31.5631043 9.37933708,30.5006425 C6.1602749,26.8717216 2.74105505,25.4604181 1.19008151,26.5106158 C0.939313586,26.6807348 0.712100244,26.9497107 0.589651003,27.3307072 C0.400032883,27.9206974 0.493372569,28.692389 0.990719268,29.6874848 C1.28665871,30.2801858 1.55735654,30.7761103 2.30286025,32.110945 C3.18855556,33.695978 3.61872584,34.4860164 4.14873875,35.5313917 C6.61564581,40.3970163 7.96438165,44.8298067 7.96438165,49.5758434 C7.96438165,55.1615264 10.6445201,60.9073085 14.1984551,64.1008288 C15.495123,65.2652515 15.9489805,66.6035775 15.9643817,67.6238434 L15.9643817,74.8258434 L41.6433817,74.8258434 Z" transform="translate(34.5 21)"/>
  </g>
</svg>
