<svg xmlns="http://www.w3.org/2000/svg" width="120" height="117" viewBox="0 0 120 117">
  <g fill="none" fill-rule="evenodd">
    <rect width="120" height="180"/>
    <g transform="translate(52 37.33)">
      <path fill="#EAF2E9" fill-opacity=".4" d="M16,65 C16,65 15.9769231,26.2768409 16,24 C15.9769231,22.320174 12.7327959,20 8,20 C3.26720406,20 0.0230769231,22.320174 0,24 C0.0230769231,26.2768409 0,65 0,65 C0,65 3.05164147,62.9756985 8,63 C12.9483585,63.0243015 16,65 16,65 Z" transform="matrix(1 0 0 -1 0 85)"/>
      <path stroke="#A4BA92" d="M0.5,2.44717825 L0.5,61 C0.5,62.9773773 3.08952238,64.5 8,64.5 C13.5759456,64.5 15.5,63.246376 15.5,61 L15.5,2.44717825 L15.4922344,2.3965274 C15.3240621,1.29962854 12.417471,0.5 8,0.5 C3.58252896,0.5 0.675937872,1.29962854 0.507765592,2.3965274 L0.5,2.44717825 Z"/>
      <path fill="#A4BA92" fill-rule="nonzero" d="M.0121608647 2.66999817C.236223146 4.21450937 3.53359796 5 8 5 12.466402 5 15.7637769 4.21450937 15.9878391 2.66999817L14.9484933 2.66999817C14.5558734 3.32508233 11.9443905 4 8 4 4.05560954 4 1.44412665 3.32508233 1.05150669 2.66999817L.0121608647 2.66999817zM.0121608647 19.6699982C.236223146 21.2145094 3.53359796 22 8 22 12.466402 22 15.7637769 21.2145094 15.9878391 19.6699982L14.9484933 19.6699982C14.5558734 20.3250823 11.9443905 21 8 21 4.05560954 21 1.44412665 20.3250823 1.05150669 19.6699982L.0121608647 19.6699982z"/>
    </g>
  </g>
</svg>
