<svg xmlns="http://www.w3.org/2000/svg" width="120" height="117" viewBox="0 0 120 117">
  <g fill="none" fill-rule="evenodd">
    <rect width="120" height="180"/>
    <g transform="translate(21 25)">
      <path fill="#EAF2E9" fill-opacity=".4" stroke="#A4BA92" d="M3.5,36.5 L3.5,59 C3.5,63.1421356 6.85786438,66.5 11,66.5 L67,66.5 C71.1421356,66.5 74.5,63.1421356 74.5,59 L74.5,36.5 L3.5,36.5 Z"/>
      <path stroke="#A4BA92" d="M3,31.5 C1.61928813,31.5 0.5,32.6192881 0.5,34 C0.5,35.3807119 1.61928813,36.5 3,36.5 L75,36.5 C76.3807119,36.5 77.5,35.3807119 77.5,34 C77.5,32.6192881 76.3807119,31.5 75,31.5 L3,31.5 Z"/>
      <path stroke="#A4BA92" stroke-linecap="round" d="M20.5,66.5999985 L17.4300131,69.6017645 C17.1080637,69.9165596 17.102264,70.4327429 17.417059,70.7546923 C17.5704493,70.9115687 17.7805945,71 18,71 L19.55763,71 C19.839375,71 20.108048,70.8811471 20.2975702,70.6726727 L24,66.5999985 L20.5,66.5999985 Z"/>
      <path stroke="#A4BA92" stroke-linecap="round" d="M58.5,66.5999985 L55.4300131,69.6017645 C55.1080637,69.9165596 55.102264,70.4327429 55.417059,70.7546923 C55.5704493,70.9115687 55.7805945,71 56,71 L57.55763,71 C57.839375,71 58.108048,70.8811471 58.2975702,70.6726727 L62,66.5999985 L58.5,66.5999985 Z" transform="matrix(-1 0 0 1 116 0)"/>
      <path stroke="#A4BA92" stroke-linejoin="round" d="M6.5,31.5 L6.5,16.0689655 C6.5,11.3374127 10.3046143,7.5 15,7.5 C19.6953857,7.5 23.5,11.3374127 23.5,16.0689655 L23.5,16.5689655 L23,16.5689655 C22.2222222,16.5689655 22.2222222,16.5689655 21.2222222,16.5689655 C20.2222222,16.5689655 20.2222222,16.5689655 19.4444444,16.5689655 L18.9444444,16.5689655 L18.9444444,16.0689655 C18.9444444,13.8683925 17.1774912,12.0862069 15,12.0862069 C12.8225088,12.0862069 11.0555556,13.8683925 11.0555556,16.0689655 L11.0555556,31.5 L6.5,31.5 Z"/>
      <rect width="1" height="7" x="21" y="19" fill="#A4BA92"/>
      <rect width="1" height="6" x="24" y="19" fill="#A4BA92" transform="rotate(-12 24.5 22)"/>
      <rect width="1" height="6" x="18" y="19" fill="#A4BA92" transform="scale(-1 1) rotate(-12 0 198.016)"/>
    </g>
  </g>
</svg>
