<svg xmlns="http://www.w3.org/2000/svg" width="120" height="117" viewBox="0 0 120 117">
  <g fill="none" fill-rule="evenodd">
    <rect width="120" height="180"/>
    <g transform="translate(32 37)">
      <path stroke="#A4BA92" d="M2.5,19.5 L2.5,57 C2.5,57.8284271 3.17157288,58.5 4,58.5 L52,58.5 C52.8284271,58.5 53.5,57.8284271 53.5,57 L53.5,19.5 L2.5,19.5 Z"/>
      <rect width="50" height="38" x="3" y="20" fill="#EAF2E9" fill-opacity=".4"/>
      <path stroke="#A4BA92" d="M1,12.5 C0.723857625,12.5 0.5,12.7238576 0.5,13 L0.5,19 C0.5,19.2761424 0.723857625,19.5 1,19.5 L55,19.5 C55.2761424,19.5 55.5,19.2761424 55.5,19 L55.5,13 C55.5,12.7238576 55.2761424,12.5 55,12.5 L1,12.5 Z"/>
      <rect width="52" height="1" x="2" y="32.5" fill="#A4BA92"/>
      <rect width="1" height="45" x="27.5" y="13" fill="#A4BA92"/>
      <path stroke="#A4BA92" d="M11.3043478,26 C14.3875543,24.8954469 20.0447977,14.7823873 22.2760778,12.6282665 C23.8769737,11.0827309 25.7849478,10.9845067 28,12.3335939 C28,11.7811706 28,11.2496827 28,10.7391304 C28,5.02095347 24.3020808,0.975337017 19,0.173913043 C13.6979192,-0.62751093 8,3.4207416 8,8.39130435 C8,9.80525333 8.32606243,11.1430464 8.90709775,12.3335939"/>
      <path stroke="#A4BA92" d="M31.3043478,25.9977497 C34.3875543,24.8931966 40.0447977,14.780137 42.2760778,12.6260162 C43.8769737,11.0804806 45.7849478,10.9822564 48,12.3313436 C48,11.7789202 48,11.2474324 48,10.7368801 C48,5.01870315 44.3020808,0.973086699 39,0.171662726 C33.6979192,-0.629761248 28,3.41849128 28,8.38905403 C28,9.80300302 28.3260624,11.140796 28.9070977,12.3313436" transform="matrix(-1 0 0 1 76 0)"/>
    </g>
  </g>
</svg>
