<svg xmlns="http://www.w3.org/2000/svg" width="120" height="117" viewBox="0 0 120 117">
  <g fill="none" fill-rule="evenodd">
    <rect width="120" height="180"/>
    <g transform="translate(39 33)">
      <path fill="#EAF2E9" fill-opacity=".4" fill-rule="nonzero" stroke="#A4BA92" d="M36.8935061,14.4885274 L36.5,14.4027472 L36.5,10.5 L38,10.5 C38.8284271,10.5 39.5,9.82842712 39.5,9 L39.5,2 C39.5,1.17157288 38.8284271,0.5 38,0.5 L6,0.5 C5.17157288,0.5 4.5,1.17157288 4.5,2 L4.5,9 C4.5,9.82842712 5.17157288,10.5 6,10.5 L7.5,10.5 L7.5,14.3996669 L7.11015255,14.4877155 C3.40665341,15.324166 0.5,18.8573061 0.5,23 L0.5,54 C0.5,58.8175213 4.15775835,62.5 9,62.5 L35,62.5 C39.804212,62.5 43.5,58.8546476 43.5,54 L43.5,23 C43.5,18.8011123 40.6655158,15.3107865 36.8935061,14.4885274 Z M0.5,24.5 L43.5,24.5 L43.5,51.5 L0.5,51.5 L0.5,24.5 Z"/>
      <rect width="32" height="1" x="6" y="10" fill="#A4BA92"/>
      <g stroke="#A4BA92" stroke-linecap="round" transform="translate(10 29)">
        <path fill="#EAF2E9" fill-opacity=".4" stroke-linejoin="round" d="M10,5 C8,1 5,1.5 0.5,1.5 C1.5,6.82738448 2,12.5 9.5,11"/>
        <path fill="#EAF2E9" fill-opacity=".4" stroke-linejoin="round" d="M11,13 C7.20584305,8.95151643 9.27082683,-1.28819553 23,1 C22,6 23,9 20,12 C17.4101351,14.5898649 13,15.1340623 11,13 Z"/>
        <path d="M9 19C9 14 11 9 17 5M9 8C7.5 8 6.5 6.5 5 5"/>
      </g>
    </g>
  </g>
</svg>
