<svg xmlns="http://www.w3.org/2000/svg" width="120" height="117" viewBox="0 0 120 117">
  <g fill="none" fill-rule="evenodd">
    <rect width="120" height="180"/>
    <g transform="translate(38 56)">
      <path fill="#EAF2E9" fill-opacity=".4" d="M44,44.2727273 L44,18.8181818 C44,16.8098736 36.7489465,14.4545455 22.5,14.4545455 C8.25105346,14.4545455 1,16.8098736 1,18.8181818 L1,44.2727273 C1,44.2727273 8.16666667,42.3636364 22.5,42.3636364 C36.8333333,42.3636364 44,44.2727273 44,44.2727273 Z" transform="matrix(1 0 0 -1 0 58.727)"/>
      <path stroke="#A4BA92" d="M0.5,1 L0.5,40.5454545 C0.5,42.3143797 9.28040874,44.1363636 22,44.1363636 C34.7195913,44.1363636 43.5,42.3143797 43.5,40.5454545 L43.5,1 C43.5,-0.646095715 35.0779804,-2.13636364 22,-2.13636364 C8.92201957,-2.13636364 0.5,-0.646095715 0.5,1 Z"/>
      <path fill="#A4BA92" fill-rule="nonzero" d="M.0000259501197.629999995C.0000086505324.632120784 1.65765025e-15.634241998 1.65765025e-15.636363636 1.65765025e-15 2.64467182 7.75105346 4.27272727 22 4.27272727 36.2489465 4.27272727 44 2.64467182 44 .636363636 44 .634241998 43.9999913.632120784 43.999974.629999995L42.9933114.629999995C42.9978327.634163215 43 .636331711 43 .636363636 43 .636685225 42.7800892.853794728 42.1496412 1.14271832 41.2807579 1.54091279 39.9339968 1.91066374 38.1691128 2.22295819 34.3497718 2.89878674 28.8010822 3.27272727 22 3.27272727 15.1989178 3.27272727 9.65022816 2.89878674 5.83088722 2.22295819 4.06600325 1.91066374 2.71924214 1.54091279 1.85035879 1.14271832 1.21991082.853794728 1 .636685225 1 .636363636 1 .636331711 1.00216735.634163215 1.00668855.629999995L.0000240875034.629999995zM.0000259501197 13.63C.0000086505324 13.6321208 1.65765025e-15 13.634242 1.65765025e-15 13.6363636 1.65765025e-15 15.6446718 7.75105346 17.2727273 22 17.2727273 36.2489465 17.2727273 44 15.6446718 44 13.6363636 44 13.634242 43.9999913 13.6321208 43.999974 13.63L42.9933114 13.63C42.9978327 13.6341632 43 13.6363317 43 13.6363636 43 13.6366852 42.7800892 13.8537947 42.1496412 14.1427183 41.2807579 14.5409128 39.9339968 14.9106637 38.1691128 15.2229582 34.3497718 15.8987867 28.8010822 16.2727273 22 16.2727273 15.1989178 16.2727273 9.65022816 15.8987867 5.83088722 15.2229582 4.06600325 14.9106637 2.71924214 14.5409128 1.85035879 14.1427183 1.21991082 13.8537947 1 13.6366852 1 13.6363636 1 13.6363317 1.00216735 13.6341632 1.00668855 13.63L.0000240875034 13.63z"/>
    </g>
  </g>
</svg>
