<?xml version="1.0" encoding="UTF-8"?>
<svg width="120px" height="117px" viewBox="0 0 120 117" version="1.1" xmlns="http://www.w3.org/2000/svg" xmlns:xlink="http://www.w3.org/1999/xlink">
    <!-- Generator: Sketch 48.2 (47327) - http://www.bohemiancoding.com/sketch -->
    <title>category--apparel</title>
    <desc>Created with Sketch.</desc>
    <defs></defs>
    <g id="category--apparel" stroke="none" stroke-width="1" fill="none" fill-rule="evenodd">
        <g id="category--crystals">
            <rect id="Rectangle-2" x="0" y="0" width="120" height="180"></rect>
            <g id="category--apparel" transform="translate(25.000000, 16.000000)">
                <path d="M0.921052632,30.36 C5.10467836,20.6266667 7.79415205,14.7866667 8.98947368,12.84 C10.7824561,9.92 23.3333333,6.02666667 25.1263158,4.08 C29.6087719,7 39.4701754,7 43.9526316,4.08 C46.6421053,6.02666667 48.4350877,7 54.7105263,9.92 C60.9859649,12.84 61.8824561,19.6533333 62.7789474,21.6 C63.6754386,23.5466667 66.3649123,28.4133333 68.1578947,32.3066667 C66.3649123,35.2266667 60.9859649,37.1733333 59.1929825,39.12 C57.4,36.2 57.4,34.2533333 55.6070175,33.28 C55.6070175,36.2 56.5035088,38.1466667 56.5035088,41.0666667 C56.5035088,43.9866667 57.4,50.8 57.4,62.48 C57.4,74.16 56.5035088,78.0533333 57.4,81.9466667 C57.4,82.92 47.5385965,81.9466667 44.8491228,80.9733333 C42.1596491,80 39.4701754,80 34.9877193,80.9733333 C30.5052632,81.9466667 26.9192982,80 22.4368421,80.9733333 C17.954386,81.9466667 12.5754386,82.92 10.7824561,82.92 C8.98947368,82.92 10.7824561,80.9733333 10.7824561,74.16 C10.7824561,67.3466667 11.6789474,61.5066667 10.7824561,52.7466667 C9.88596491,43.9866667 11.6789474,37.1733333 11.6789474,33.28 C10.7824561,33.28 8.98947368,37.1733333 7.19649123,37.1733333 C5.40350877,37.1733333 3.31169591,34.9022222 0.921052632,30.36 Z" id="Path-7" fill-opacity="0.4" fill="#EAF2E9" fill-rule="evenodd"></path>
                <path d="M0.921052632,30.36 C5.10467836,20.6266667 7.79415205,14.7866667 8.98947368,12.84 C10.7824561,9.92 23.3333333,6.02666667 25.1263158,4.08 C29.6087719,7 39.4701754,7 43.9526316,4.08 C46.6421053,6.02666667 48.4350877,7 54.7105263,9.92 C60.9859649,12.84 61.8824561,19.6533333 62.7789474,21.6 C63.6754386,23.5466667 66.3649123,28.4133333 68.1578947,32.3066667 C66.3649123,35.2266667 60.9859649,37.1733333 59.1929825,39.12 C57.4,36.2 57.4,34.2533333 55.6070175,33.28 C55.6070175,36.2 56.5035088,38.1466667 56.5035088,41.0666667 C56.5035088,43.9866667 57.4,50.8 57.4,62.48 C57.4,74.16 56.5035088,78.0533333 57.4,81.9466667 C57.4,82.92 47.5385965,81.9466667 44.8491228,80.9733333 C42.1596491,80 39.4701754,80 34.9877193,80.9733333 C30.5052632,81.9466667 26.9192982,80 22.4368421,80.9733333 C17.954386,81.9466667 12.5754386,82.92 10.7824561,82.92 C8.98947368,82.92 10.7824561,80.9733333 10.7824561,74.16 C10.7824561,67.3466667 11.6789474,61.5066667 10.7824561,52.7466667 C9.88596491,43.9866667 11.6789474,37.1733333 11.6789474,33.28 C10.7824561,33.28 8.98947368,37.1733333 7.19649123,37.1733333 C5.40350877,37.1733333 3.31169591,34.9022222 0.921052632,30.36 Z" id="Path-7" stroke="#A4BA92" stroke-width="1" stroke-linejoin="bevel"></path>
                <path d="M24.4565138,4.2236068 L25.2803283,3.7763932 C27.0043078,7.51989159 31.8921603,11.5 34.5394737,11.5 C37.6363289,11.5 42.2087944,8.08698109 43.7829384,3.81430466 L44.6381143,4.18569534 C42.9250531,8.83543271 38.015585,12.5 34.5394737,12.5 C31.5069625,12.5 26.3246395,8.28010841 24.4565138,4.2236068 Z" id="Path-8" fill="#A4BA92" fill-rule="nonzero"></path>
            </g>
        </g>
    </g>
</svg>