<svg xmlns="http://www.w3.org/2000/svg" width="120" height="117" viewBox="0 0 120 117">
  <g fill="none" fill-rule="evenodd">
    <rect width="120" height="180"/>
    <rect width="120" height="117"/>
    <g transform="translate(33 46)">
      <path fill="#EAF2E9" fill-opacity=".4" d="M54,27 C54,41.913 41.913,54 27,54 C12.0882857,54 0,41.913 0,27 C0,12.0882857 12.0882857,0 27,0 C41.913,0 54,12.0882857 54,27 Z M14.0160857,8.08598571 C12.7380857,10.3089857 10.3260857,11.6757 9.47108571,14.1198429 C8.53637143,16.7928429 7.90122857,19.1804143 8.04522857,22.0527 C8.2188,25.4547 9.43765714,26.2659857 12.5156571,25.9818429 C15.7260857,25.6861286 16.0449429,27.4642714 17.8603714,29.6911286 C19.7580857,32.0195571 20.9075143,30.5049857 22.8476571,29.5149857 C24.1128,28.8682714 25.2159429,29.5111286 26.3808,30.0575571 C27.7359429,30.6952714 28.9625143,30.4137 30.2893714,29.8209857 C33.1706571,28.5301286 35.1108,29.1048429 38.1155143,28.8914143 C39.9090857,28.7641286 43.8703714,31.8189857 45.2049429,30.2375571 C48.3780857,26.4717 42.7929429,22.2005571 43.3740857,18.1428429 C43.6518,16.1988429 45.9300857,15.1368429 44.2213714,12.8919857 C43.5772286,12.0434143 42.0896571,12.1745571 41.6859429,11.2192714 C41.2886571,10.2845571 40.9389429,9.07212857 40.1508,8.42412857 C36.8696571,5.72927143 29.6143714,2.70912857 25.7765143,5.00027143 C21.3575143,7.63855714 17.0799429,2.7477 14.0160857,8.08598571 C13.6316571,8.75584286 14.3310857,7.53698571 14.0160857,8.08598571 Z"/>
      <circle cx="27" cy="27" r="26.5" stroke="#A4BA92"/>
      <path stroke="#A4BA92" stroke-width=".9" d="M14.0160857,8.08598571 C12.7380857,10.3089857 10.3260857,11.6757 9.47108571,14.1198429 C8.53637143,16.7928429 7.90122857,19.1804143 8.04522857,22.0527 C8.2188,25.4547 9.43765714,26.2659857 12.5156571,25.9818429 C15.7260857,25.6861286 16.0449429,27.4642714 17.8603714,29.6911286 C19.7580857,32.0195571 20.9075143,30.5049857 22.8476571,29.5149857 C24.1128,28.8682714 25.2159429,29.5111286 26.3808,30.0575571 C27.7359429,30.6952714 28.9625143,30.4137 30.2893714,29.8209857 C33.1706571,28.5301286 35.1108,29.1048429 38.1155143,28.8914143 C39.9090857,28.7641286 43.8703714,31.8189857 45.2049429,30.2375571 C48.3780857,26.4717 42.7929429,22.2005571 43.3740857,18.1428429 C43.6518,16.1988429 45.9300857,15.1368429 44.2213714,12.8919857 C43.5772286,12.0434143 42.0896571,12.1745571 41.6859429,11.2192714 C41.2886571,10.2845571 40.9389429,9.07212857 40.1508,8.42412857 C36.8696571,5.72927143 29.6143714,2.70912857 25.7765143,5.00027143 C21.3575143,7.63855714 17.0799429,2.7477 14.0160857,8.08598571 C13.6316571,8.75584286 14.3310857,7.53698571 14.0160857,8.08598571 Z"/>
      <path stroke="#A4BA92" d="M24.3839571,8.69927143 C25.6388143,8.02555714 27.1495286,6.20627143 29.3571,6.83241429 C31.4502429,7.4277 32.7423857,6.87998571 34.7236714,7.96512857 C38.4046714,9.98498571 36.9081,9.80112857 38.4998143,11.7117 C39.6248143,13.0604143 41.3181,14.3011286 41.3129571,15.1085571 C41.2988143,17.0589857 40.3486714,18.2225571 40.9915286,21.0318429 C41.1535286,21.7479857 43.3688143,24.8517 42.5819571,26.1644143 C41.7951,27.4784143 39.4808143,26.0641286 38.8353857,25.8944143 C35.9901,25.1409857 33.2103857,25.8121286 30.4859571,26.7275571 C28.8286714,27.2855571 26.2058143,27.7227 24.4932429,27.1338429 C22.5505286,26.4678429 21.1992429,28.5687 19.6743857,27.2148429 C18.4953857,26.1682714 15.9882429,23.9645571 14.5212429,23.6084143 C13.4129571,23.3397 12.7161,24.2397 12.4178143,22.8601286 C12.1735286,21.7338429 11.4291,20.7271286 11.4175286,19.5622714 C11.4008143,17.8535571 11.6258143,16.2939857 12.1426714,14.6727 C12.4023857,13.8575571 12.7675286,12.9897 13.3705286,12.3969857 C14.2101,11.5715571 15.6243857,11.5664143 16.3778143,10.6368429 C17.8191,8.85612857 17.9271,9.34984286 20.4201,8.28527143 C22.1879571,7.53055714 23.1291,9.37298571 24.3839571,8.69927143 Z"/>
      <polygon fill="#A4BA92" fill-opacity=".4" points="28.868 12.028 26.457 11.225 22.8 12.511 20.832 17.894 19.949 19.703 21.153 22.193 28.306 23.158 31.76 19.943 33.648 19.542 34.05 15.203 32.163 12.59"/>
      <path stroke="#A4BA92" stroke-linejoin="bevel" d="M22.8013714,12.5106429 L27.0005143,17.1919286"/>
      <polygon stroke="#A4BA92" stroke-linejoin="bevel" points="32.163 12.591 26.999 17.191 31.762 19.944 33.649 19.542 34.052 15.202"/>
      <polygon stroke="#A4BA92" stroke-linejoin="bevel" points="27 17.191 28.306 23.158 21.154 22.194 19.949 19.702 20.832 17.895"/>
      <polygon stroke="#A4BA92" points="28.868 12.028 26.457 11.225 22.8 12.511 20.832 17.894 19.949 19.703 21.153 22.193 28.306 23.158 31.76 19.943 33.648 19.542 34.05 15.203 32.163 12.59"/>
    </g>
  </g>
</svg>
