<svg xmlns="http://www.w3.org/2000/svg" width="120" height="117" viewBox="0 0 120 117">
  <g fill="none" fill-rule="evenodd">
    <rect width="120" height="180"/>
    <path fill="#EAF2E9" fill-opacity=".4" fill-rule="nonzero" stroke="#A4BA92" d="M23.7824205,22.2880461 L23.7824205,25.3078915 L3.71662374,25.3078915 C2.45598638,25.3078915 1.43403788,26.32984 1.43403788,27.5904774 C1.43403788,28.8511147 2.45598638,29.8730632 3.71662374,29.8730632 L23.7824205,29.8730632 L23.7824205,52.1251919 C23.7824205,53.3858293 24.804369,54.4077778 26.0650063,54.4077778 C27.3256437,54.4077778 28.3475922,53.3858293 28.3475922,52.1251919 L28.3475922,29.8730632 L48.6848361,29.8730632 C49.9454735,29.8730632 50.967422,28.8511147 50.967422,27.5904774 C50.967422,26.32984 49.9454735,25.3078915 48.6848361,25.3078915 L28.3475922,25.3078915 L28.3475922,22.3631722 L45.5386801,17.6696025 C46.754806,17.3375717 47.4715066,16.0825427 47.1394757,14.8664169 C46.8074449,13.650291 45.5524159,12.9335904 44.3362901,13.2656213 L28.3475922,17.6309103 L28.3475922,13.5006112 L37.6826335,8.53122151 C38.7954205,7.93884358 39.2172954,6.55653428 38.6249175,5.44374726 C38.0325396,4.33096024 36.6502302,3.90908531 35.5374432,4.50146324 L28.3475922,8.3288884 L28.3475922,3.53258586 C28.3475922,2.2719485 27.3256437,1.25 26.0650063,1.25 C24.804369,1.25 23.7824205,2.2719485 23.7824205,3.53258586 L23.7824205,8.18438698 L16.8640166,4.50146324 C15.7512296,3.90908531 14.3689203,4.33096024 13.7765424,5.44374726 C13.1841644,6.55653428 13.6060394,7.93884358 14.7188264,8.53122151 L23.7824205,13.3561098 L23.7824205,17.5558563 L8.0650469,13.2655877 C6.84890252,12.9336248 5.59391356,13.6503954 5.26195059,14.8665398 C4.92998762,16.0826842 5.64675827,17.3376731 6.86290265,17.6696361 L23.7824205,22.2880461 Z" transform="translate(34 41)"/>
  </g>
</svg>
