<svg xmlns="http://www.w3.org/2000/svg" width="36" height="36" viewBox="0 0 36 36">
  <g fill="none" fill-rule="evenodd">
    <rect width="36" height="36"/>
    <path fill="#FFF" fill-rule="nonzero" d="M8,15.9925398 C8,14.3398057 9.34331197,13 10.9942021,13 L12,13 L12,7 L12,7 C12,5.8954305 12.8954305,5 14,5 L22,5 C23.1045695,5 24,5.8954305 24,7 L24,13 L25.0057979,13 C26.6594501,13 28,14.3529255 28,15.9925398 L28,27.0052166 C28,29.2114745 26.2075324,31 24.00077,31 L11.99923,31 C9.79051625,31 8,29.2082844 8,27.0052166 L8,15.9925398 Z M10,15.9925398 L10,27.0052166 C10,28.1045654 10.8959371,29 11.99923,29 L24.00077,29 C25.1042852,29 26,28.1055826 26,27.0052166 L26,15.9925398 C26,15.4518602 25.5492538,15 25.0057979,15 L10.9942021,15 C10.4463941,15 10,15.4458621 10,15.9925398 Z M22,13 L22,6.99961498 C22,6.99848591 19.3361767,6.99861425 14.0085302,7 C14.004968,7 14.0021246,9 14,13 L22,13 Z"/>
  </g>
</svg>
