<svg width="36" height="36" viewBox="0 0 36 36" fill="none" xmlns="http://www.w3.org/2000/svg">
<path d="M23.4375 29.25C24.9563 29.25 26.1875 28.0188 26.1875 26.5C26.1875 25.7207 25.8628 25.0177 25.342 24.5174L25.3865 24.3129C25.5263 23.6701 25.0367 23.0625 24.3788 23.0625H12.2553L11.8518 21H25.2755C25.7606 21 26.1801 20.6619 26.2831 20.1878L28.226 11.2503C28.3658 10.6076 27.8761 10 27.2183 10H9.69953L9.32456 8.08328C9.22985 7.59929 8.80566 7.25005 8.31249 7.25005H4.01562C3.73087 7.25005 3.5 7.48092 3.5 7.76567V8.79692C3.5 9.08167 3.73087 9.31254 4.01562 9.31254H7.46344L10.4538 24.5965C9.9795 25.0907 9.68749 25.761 9.68749 26.5C9.68749 28.0188 10.9187 29.25 12.4375 29.25C13.9562 29.25 15.1875 28.0188 15.1875 26.5V26.4969C15.1875 25.9983 15.0521 25.5278 14.8187 25.125H21.0563C20.8229 25.5278 20.6892 25.9954 20.6892 26.494C20.6892 26.495 20.6875 26.499 20.6875 26.5C20.6875 28.0188 21.9187 29.25 23.4375 29.25ZM24.4446 18.9375H11.4484L10.103 12.0625H25.939L24.4446 18.9375ZM12.4375 27.5312C11.8688 27.5312 11.4062 27.0687 11.4062 26.5C11.4062 25.9313 11.8688 25.4688 12.4375 25.4688C13.0061 25.4688 13.4687 25.9313 13.4687 26.5C13.4687 27.0687 13.0061 27.5312 12.4375 27.5312ZM23.4375 27.5312C22.8688 27.5312 22.4062 27.0687 22.4062 26.5C22.4062 25.9313 22.8688 25.4688 23.4375 25.4688C24.0061 25.4688 24.4687 25.9313 24.4687 26.5C24.4687 27.0687 24.0061 27.5312 23.4375 27.5312Z" fill="white"/>
</svg>
