<svg xmlns="http://www.w3.org/2000/svg" width="36" height="36" viewBox="0 0 36 36">
  <g fill="none" fill-rule="evenodd">
    <g transform="translate(0 -1)">
      <circle cx="18" cy="19" r="18"/>
      <g fill="#999" fill-rule="nonzero" transform="translate(1.305 .474)">
        <path d="M1.27062622 27.8103662C1.29619441 27.8104729 1.32177518 27.8105263 1.34736842 27.8105263 11.2884939 27.8105263 19.3473684 19.7516518 19.3473684 9.81052632 19.3473684 6.41400419 18.4066229 3.23720496 16.771479.526475926 16.7459109.526369203 16.7203301.526315789 16.6947368.526315789 16.3310395.526315789 15.9698615.537102364 15.6115053.558373055 17.3420735 3.22094385 18.3473684 6.39833548 18.3473684 9.81052632 18.3473684 19.1993671 10.7362092 26.8105263 1.34736842 26.8105263 1.13194634 26.8105263.917460122 26.8065194.703980225 26.7985761.882243205 27.1424694 1.07127401 27.4798816 1.27062622 27.8103662zM32.0421053 27.9364175C30.3596885 25.1983313 29.3894737 21.9756265 29.3894737 18.5263158 29.3894737 15.0770051 30.3596885 11.8543003 32.0421053 9.11621409 32.2425699 9.44246471 32.4329232 9.77559566 32.6127286 10.1151704 31.1978661 12.5954604 30.3894737 15.466483 30.3894737 18.5263158 30.3894737 21.5861486 31.1978661 24.4571712 32.6127286 26.9374611 32.4329232 27.2770359 32.2425699 27.6101669 32.0421053 27.9364175z"/>
        <path d="M1.34736842,9.11621409 C3.02978518,11.8543003 4,15.0770051 4,18.5263158 C4,21.9756265 3.02978518,25.1983313 1.34736842,27.9364175 C1.14690376,27.6101669 0.956550507,27.2770359 0.776745131,26.9374611 C2.19160754,24.4571712 3,21.5861486 3,18.5263158 C3,15.466483 2.19160754,12.5954604 0.776745131,10.1151704 C0.956550507,9.77559566 1.14690376,9.44246471 1.34736842,9.11621409 Z"/>
        <path d="M0.84201619,9.99304283 C1.00990269,9.99767083 1.17836355,10 1.34736842,10 C8.20079408,10 14.1596343,6.16982434 17.2000891,0.533272959 C17.0322026,0.528644962 16.8637417,0.526315789 16.6947368,0.526315789 C16.4793381,0.526315789 16.264823,0.530099254 16.0512545,0.537603351 C13.1178417,5.57878218 7.66620556,8.9739088 1.41947897,8.99985029 C1.21680638,9.3241406 1.02417371,9.65534985 0.84201619,9.99304283 Z"/>
        <path d="M0.994740519,9.71578947 C4.07916238,15.2003183 9.95428149,18.9052632 16.6947368,18.9052632 C23.4351922,18.9052632 29.3103113,15.2003183 32.3947332,9.71578947 C32.2049184,9.37827247 32.0045347,9.04749503 31.7940311,8.72390586 C28.963757,14.1786028 23.264451,17.9052632 16.6947368,17.9052632 C10.1250227,17.9052632 4.42571666,14.1786028 1.59544261,8.72390586 C1.38493894,9.04749503 1.18455533,9.37827247 0.994740519,9.71578947 Z"/>
        <path d="M1.04839754 27.4315789C4.14697411 21.9991653 9.99316477 18.3368421 16.6947368 18.3368421 23.3963089 18.3368421 29.2424996 21.9991653 32.3410761 27.4315789 32.1505976 27.7655253 31.949736 28.0927826 31.738931 28.4129113 28.8902306 23.0156036 23.2220941 19.3368421 16.6947368 19.3368421 10.1673795 19.3368421 4.49924305 23.0156036 1.65054268 28.4129113 1.43973767 28.0927826 1.23887609 27.7655253 1.04839754 27.4315789zM16.1893846.533272959C19.2298394 6.16982434 25.1886796 10 32.0421053 10 32.2111101 10 32.379571 9.99767083 32.5474575 9.99304283 32.3653 9.65534985 32.1726673 9.3241406 31.9699947 8.99985029 25.7232681 8.9739088 20.271632 5.57878218 17.3382192.537603351 17.1246507.530099254 16.9101356.526315789 16.6947368.526315789 16.525732.526315789 16.3572711.528644962 16.1893846.533272959z"/>
        <path d="M16.6179946,0.526475926 C14.9828508,3.23720496 14.0421053,6.41400419 14.0421053,9.81052632 C14.0421053,19.7516518 22.1009798,27.8105263 32.0421053,27.8105263 C32.0676985,27.8105263 32.0932793,27.8104729 32.1188475,27.8103662 C32.3181997,27.4798816 32.5072305,27.1424694 32.6854935,26.7985761 C32.4720136,26.8065194 32.2575273,26.8105263 32.0421053,26.8105263 C22.6532645,26.8105263 15.0421053,19.1993671 15.0421053,9.81052632 C15.0421053,6.39833548 16.0474002,3.22094385 17.7779684,0.558373055 C17.4196122,0.537102364 17.0584342,0.526315789 16.6947368,0.526315789 C16.6691436,0.526315789 16.6435628,0.526369203 16.6179946,0.526475926 Z"/>
        <path d="M16.5047975,36.5253344 C14.9395096,33.8566963 14.0421053,30.7489376 14.0421053,27.4315789 C14.0421053,17.4904535 22.1009798,9.43157895 32.0421053,9.43157895 C32.1054954,9.43157895 32.1688091,9.43190663 32.2320446,9.43256038 C32.4265874,9.76423366 32.6108134,10.10269 32.784282,10.4474888 C32.5382091,10.4369184 32.2907807,10.4315789 32.0421053,10.4315789 C22.6532645,10.4315789 15.0421053,18.0427382 15.0421053,27.4315789 C15.0421053,30.765982 16.0020872,33.8761692 17.660747,36.5008367 C17.3408866,36.5177514 17.0188119,36.5263158 16.6947368,36.5263158 C16.6313467,36.5263158 16.568033,36.5259881 16.5047975,36.5253344 Z"/>
        <path d="M1.15742908,9.43256038 C1.2206646,9.43190663 1.28397824,9.43157895 1.34736842,9.43157895 C11.2884939,9.43157895 19.3473684,17.4904535 19.3473684,27.4315789 C19.3473684,30.7489376 18.4499641,33.8566963 16.8846762,36.5253344 C16.8214407,36.5259881 16.758127,36.5263158 16.6947368,36.5263158 C16.3706618,36.5263158 16.0485871,36.5177514 15.7287266,36.5008367 C17.3873865,33.8761692 18.3473684,30.765982 18.3473684,27.4315789 C18.3473684,18.0427382 10.7362092,10.4315789 1.34736842,10.4315789 C1.09869296,10.4315789 0.851264581,10.4369184 0.605191678,10.4474888 C0.778660314,10.10269 0.96288633,9.76423366 1.15742908,9.43256038 Z"/>
        <path d="M0.944291477,27.2465293 C1.07829459,27.2435851 1.21265869,27.2421053 1.34736842,27.2421053 C8.12475623,27.2421053 14.0272991,30.9877618 17.0978138,36.5218918 C16.9638107,36.524836 16.8294466,36.5263158 16.6947368,36.5263158 C16.4408034,36.5263158 16.1880981,36.5210575 15.9367239,36.5106439 C12.9966736,31.6086812 7.65607809,28.3111264 1.54013343,28.2431756 C1.33118788,27.9179744 1.13242383,27.5856089 0.944291477,27.2465293 Z"/>
        <path d="M16.2916599,36.5218918 C19.3621746,30.9877618 25.2647175,27.2421053 32.0421053,27.2421053 C32.176815,27.2421053 32.3111791,27.2435851 32.4451822,27.2465293 C32.2570498,27.5856089 32.0582858,27.9179744 31.8493403,28.2431756 C25.7333956,28.3111264 20.3928001,31.6086812 17.4527498,36.5106439 C17.2013756,36.5210575 16.9486703,36.5263158 16.6947368,36.5263158 C16.5600271,36.5263158 16.425663,36.524836 16.2916599,36.5218918 Z"/>
      </g>
    </g>
    <circle cx="18" cy="18" r="17.5" stroke="#999"/>
  </g>
</svg>
