<svg xmlns="http://www.w3.org/2000/svg" width="36" height="36" viewBox="0 0 36 36">
  <g fill="none" fill-rule="evenodd">
    <rect width="36" height="36"/>
    <g stroke="#999" transform="matrix(1 0 0 -1 4 30)">
      <path d="M0 3C4 6.87783164e-13 7.00550285.00748495818 14 3 20.9944972 5.99251504 24.0029754 6 28 3M0 9C4 6 7.00550285 6.00748496 14 9 20.9944972 11.992515 24.0029754 12 28 9M0 15C4 12 7.00550285 12.007485 14 15 20.9944972 17.992515 24.0029754 18 28 15M0 21C4 18 7.00550285 18.007485 14 21 20.9944972 23.992515 24.0029754 24 28 21"/>
    </g>
  </g>
</svg>
