<svg xmlns="http://www.w3.org/2000/svg" width="36" height="36" viewBox="0 0 36 36">
  <g fill="none" fill-rule="evenodd">
    <rect width="36" height="36"/>
    <g fill="#999" fill-rule="nonzero">
      <path d="M12,23.85 C17.9922895,23.85 22.85,18.9922895 22.85,13 C22.85,7.00771046 17.9922895,2.15 12,2.15 C6.00771046,2.15 1.15,7.00771046 1.15,13 C1.15,18.9922895 6.00771046,23.85 12,23.85 Z M12,25 C5.372583,25 0,19.627417 0,13 C0,6.372583 5.372583,1 12,1 C18.627417,1 24,6.372583 24,13 C24,19.627417 18.627417,25 12,25 Z"/>
      <path d="M29.7354742 16.6322629C27.7653419 12.6996637 23.6979411 10 19 10 12.372583 10 7 15.372583 7 22 7 28.627417 12.372583 34 19 34 23.6979411 34 27.7653419 31.3003363 29.7354742 27.3677371L28.8408514 26.9204257C27.0348968 30.5253082 23.306446 33 19 33 12.9248678 33 8 28.0751322 8 22 8 15.9248678 12.9248678 11 19 11 23.306446 11 27.0348968 13.4746918 28.8408514 17.0795743L29.7354742 16.6322629zM31 8.85C33.1262963 8.85 34.85 7.12629629 34.85 5 34.85 2.87370371 33.1262963 1.15 31 1.15 28.8737037 1.15 27.15 2.87370371 27.15 5 27.15 7.12629629 28.8737037 8.85 31 8.85zM31 10C28.2385763 10 26 7.76142375 26 5 26 2.23857625 28.2385763 0 31 0 33.7614237 0 36 2.23857625 36 5 36 7.76142375 33.7614237 10 31 10z"/>
    </g>
  </g>
</svg>
