<svg xmlns="http://www.w3.org/2000/svg" width="24" height="24" viewBox="0 0 24 24">
  <path fill="#A4BA92" fill-rule="evenodd" d="M16.0000191,11.9999881 C16.0000191,9.79686045 14.2031419,7.99998331 12.0000143,7.99998331 C9.79688668,7.99998331 8.00000954,9.79686045 8.00000954,11.9999881 C8.00000954,14.2031157 9.79688668,15.9999928 12.0000143,15.9999928 C14.2031419,15.9999928 16.0000191,14.2031157 16.0000191,11.9999881 Z M18.1562716,11.9999881 C18.1562716,15.4062421 15.4062684,18.1562454 12.0000143,18.1562454 C8.59376024,18.1562454 5.84375697,15.4062421 5.84375697,11.9999881 C5.84375697,8.59373402 8.59376024,5.84373074 12.0000143,5.84373074 C15.4062684,5.84373074 18.1562716,8.59373402 18.1562716,11.9999881 Z M19.8437737,5.59373044 C19.8437737,6.39060639 19.2031479,7.03123216 18.4062719,7.03123216 C17.609396,7.03123216 16.9687702,6.39060639 16.9687702,5.59373044 C16.9687702,4.79685449 17.609396,4.15622873 18.4062719,4.15622873 C19.2031479,4.15622873 19.8437737,4.79685449 19.8437737,5.59373044 Z M12.0000143,2.15622634 C10.2500122,2.15622634 6.50000775,2.01560118 4.92188087,2.64060192 C4.37500522,2.85935218 3.96875473,3.1249775 3.54687923,3.546853 C3.12500373,3.96872851 2.85937841,4.37497899 2.64062815,4.92185464 C2.0156274,6.49998152 2.15625257,10.249986 2.15625257,11.9999881 C2.15625257,13.7499902 2.0156274,17.4999946 2.64062815,19.0781215 C2.85937841,19.6249972 3.12500373,20.0312477 3.54687923,20.4531232 C3.96875473,20.8749987 4.37500522,21.140624 4.92188087,21.3593742 C6.50000775,21.984375 10.2500122,21.8437498 12.0000143,21.8437498 C13.7500164,21.8437498 17.5000209,21.984375 19.0781477,21.3593742 C19.6250234,21.140624 20.0312739,20.8749987 20.4531494,20.4531232 C20.8750249,20.0312477 21.1406502,19.6249972 21.3594005,19.0781215 C21.9844012,17.4999946 21.843776,13.7499902 21.843776,11.9999881 C21.843776,10.249986 21.9844012,6.49998152 21.3594005,4.92185464 C21.1406502,4.37497899 20.8750249,3.96872851 20.4531494,3.546853 C20.0312739,3.1249775 19.6250234,2.85935218 19.0781477,2.64060192 C17.5000209,2.01560118 13.7500164,2.15622634 12.0000143,2.15622634 Z M24.0000286,11.9999881 C24.0000286,13.6562401 24.0156536,15.296867 23.9219035,16.953119 C23.8281534,18.8749963 23.3906529,20.5781233 21.9844012,21.984375 C20.5781495,23.3906267 18.8750225,23.8281272 16.9531452,23.9218773 C15.2968932,24.0156274 13.6562663,24.0000024 12.0000143,24.0000024 C10.3437623,24.0000024 8.70313537,24.0156274 7.0468834,23.9218773 C5.12500611,23.8281272 3.42187908,23.3906267 2.0156274,21.984375 C0.609375726,20.5781233 0.171875205,18.8749963 0.0781250931,16.953119 C-0.0156250186,15.296867 0,13.6562401 0,11.9999881 C0,10.3437361 -0.0156250186,8.70310915 0.0781250931,7.04685717 C0.171875205,5.12497988 0.609375726,3.42185285 2.0156274,2.01560118 C3.42187908,0.6093495 5.12500611,0.171848979 7.0468834,0.0780988671 C8.70313537,-0.0156512447 10.3437623,-2.62260437e-05 12.0000143,-2.62260437e-05 C13.6562663,-2.62260437e-05 15.2968932,-0.0156512447 16.9531452,0.0780988671 C18.8750225,0.171848979 20.5781495,0.6093495 21.9844012,2.01560118 C23.3906529,3.42185285 23.8281534,5.12497988 23.9219035,7.04685717 C24.0156536,8.70310915 24.0000286,10.3437361 24.0000286,11.9999881 Z"/>
</svg>
