<svg xmlns="http://www.w3.org/2000/svg" width="150" height="150" viewBox="0 0 150 150">
  <g fill="none" fill-rule="evenodd" transform="translate(-5 -4)">
    <circle cx="79" cy="79" r="49" stroke="#000" stroke-width="2"/>
    <polyline stroke="#000" stroke-width="2" points="48 40.956 48 115.179 116.059 47.119"/>
    <path stroke="#000" stroke-width="2" d="M66,32.2725052 L66,125.5392"/>
    <path stroke="#000" stroke-width="2" d="M104.05582,79.4558441 C94.1146942,79.4558441 86.0558197,87.5147186 86.0558197,97.4558441 C86.0558197,107.39697 94.1146942,115.455844 104.05582,115.455844 L104.05582,115.455844 C113.996945,115.455844 122.05582,107.39697 122.05582,97.4558441" transform="rotate(45 104.056 97.456)"/>
    <path stroke="#000" stroke-width="2" d="M66,66.243006 L98.4305894,33.8124166"/>
    <circle cx="79" cy="79" r="68" transform="rotate(-80 79 79)"/>
    <path fill="#000" d="M107.324004,140.845057 L114.29169,137.760298 L112.725021,134.221591 L111.408293,134.804537 L112.337364,136.903073 L109.402158,138.202558 L106.578509,131.824656 L108.059829,131.168841 L107.422231,129.72867 L103.280023,131.562523 L103.917621,133.002694 L104.987463,132.52905 L107.811111,138.906952 L106.686406,139.404886 L107.324004,140.845057 Z M124.148431,129.87377 L129.067517,125.701829 L128.145809,124.615054 L126.326891,126.157702 L122.785592,121.982199 L119.685424,124.611492 L120.607132,125.698267 L122.494688,124.097406 L125.114279,127.186134 L123.226723,128.786995 L124.148431,129.87377 Z M120.24581,121.677686 L121.687216,120.45521 L120.231888,118.73925 L118.790481,119.961725 L120.24581,121.677686 Z M136.624412,115.147958 L140.170665,109.760325 L138.980373,108.97685 L137.330954,111.482726 L133.948021,109.25601 L135.589194,106.762663 L134.398903,105.979189 L132.634024,108.660476 C132.115881,108.983862 131.374905,108.909166 130.973965,108.645259 C130.347496,108.232904 130.18477,107.443398 130.968244,106.253106 C131.372352,105.639167 132.104601,104.935934 132.594037,104.683442 L131.488594,103.470956 C130.807888,103.741213 129.924178,104.865527 129.520071,105.479466 C128.167546,107.534285 128.418141,109.117897 129.470609,109.810653 C130.109607,110.231255 130.904666,110.305634 131.669113,110.126413 L130.778426,111.479587 L131.968718,112.263061 L133.073829,110.584124 L136.456761,112.810841 L135.434121,114.364484 L136.624412,115.147958 Z M143.247175,91.534975 L142.125751,95.2389334 C143.452999,95.3586723 144.06652,94.2122682 144.314276,93.3939518 C144.509873,92.7479125 144.546233,92.0066447 144.156644,90.9640183 L145.724001,91.0154018 C145.953434,91.7587797 146.072488,92.9702565 145.707373,94.1761965 C145.21186,95.8128293 143.542673,97.3918923 141.116437,96.6573161 C139.207032,96.0792177 137.968573,94.3721016 138.633604,92.1755681 C139.298634,89.9790346 141.1713,89.7467163 142.592587,90.1770302 L143.247175,91.534975 Z M139.983108,92.5841489 C139.739698,93.3881089 139.978744,94.306794 140.909801,94.8551156 L141.892134,91.6105628 C140.843718,91.4498648 140.222171,91.7945454 139.983108,92.5841489 Z M141.60982,71.9514235 L141.574399,76.6612903 L138.469487,76.6379391 L138.511,71.1180952 L136.936044,71.1062504 L136.881446,78.3660451 L147.006159,78.4421902 L147.019245,76.7022394 L143.149354,76.6731351 L143.184776,71.9632683 L141.60982,71.9514235 Z M132.26637,57.9837506 L133.343271,61.7477257 L134.7133,61.3557502 L134.073761,59.1204393 L141.933403,56.8717375 L142.614202,59.251262 L143.984232,58.8592865 L142.210026,52.6581014 L140.839997,53.0500769 L141.49604,55.3430733 L132.26637,57.9837506 Z M127.984226,42.5715563 C126.752124,40.6353353 127.484988,38.6577267 129.168108,37.5866845 C130.851228,36.5156422 132.953094,36.6893902 134.185195,38.6256112 C135.417296,40.5618321 134.684432,42.5394407 133.001312,43.610483 C131.318192,44.6815252 129.216327,44.5077772 127.984226,42.5715563 Z M130.021721,38.9281186 C128.832147,39.6850958 128.760802,40.8861619 129.30035,41.7340495 C129.839897,42.5819372 130.958126,43.0260261 132.1477,42.2690488 C133.337273,41.5120716 133.408618,40.3110055 132.869071,39.4631179 C132.329523,38.6152303 131.211295,38.1711414 130.021721,38.9281186 Z M116.985158,29.7930514 L120.45603,27.0099151 L120.51248,27.0592951 L117.819383,31.7783265 L119.185477,32.9733219 L122.396211,26.6145418 L120.928508,25.3306625 L118.480519,27.03559 L118.435359,26.996086 L119.799505,24.3430629 L118.331801,23.0591836 L112.45662,27.0872287 L113.822714,28.2822242 L118.096414,24.9458321 L118.152864,24.9952121 L115.890025,28.8350798 L116.985158,29.7930514 Z M100.207621,17.0664675 L103.721677,18.6876731 C104.023196,17.3895933 102.972288,16.6239288 102.195927,16.2657554 C101.58301,15.982987 100.853827,15.8448118 99.7674565,16.0869878 L100.034364,14.541669 C100.802269,14.4168791 102.018593,14.4659283 103.162704,14.9937627 C104.715427,15.7101093 106.049372,17.5809955 104.98742,19.8828387 C104.151682,21.6943483 102.290171,22.685712 100.206254,21.7242994 C98.1223367,20.7628867 98.1503281,18.8760729 98.7724186,17.5276559 L100.207621,17.0664675 Z M100.796926,20.4439843 C101.559667,20.7958739 102.50253,20.6857237 103.173939,19.8391211 L100.095734,18.4189953 C99.792076,19.4352588 100.047805,20.0983784 100.796926,20.4439843 Z M87.4039102,11.4991358 L82.0594616,10.7265624 L81.8555881,12.136903 L84.2457442,12.482415 L84.1105439,13.4176935 C83.9023783,14.8577254 83.0236574,16.4281632 81.3906315,16.192099 C81.0343349,16.1405942 80.6018404,15.9871389 80.2314044,15.5092245 L79.7536938,17.0315393 C80.0626009,17.5157153 80.8174085,17.7460748 81.2776249,17.8126019 C82.5098173,17.990723 83.5058911,17.2859805 84.1105983,15.933583 L84.169981,15.9421671 L84.0711139,17.9890795 L86.416733,18.3281534 L86.5991462,17.0662697 L85.3372625,16.8838565 L85.9381529,12.7270632 L87.2000366,12.9094764 L87.4039102,11.4991358 Z M67.7461722,16.9058163 C68.0720164,19.2078698 67.1939774,20.7107579 65.8573012,20.8999577 C64.6394406,21.0723398 63.9958638,20.0575201 63.7834032,18.6635383 L61.9566123,18.9221114 C62.2950698,21.3132767 63.6760851,22.9357429 65.9781386,22.6098988 C68.5623794,22.2441124 69.9635668,19.7279052 69.507385,16.5050302 C69.0133632,13.01482 66.7981267,11.8134239 64.6891486,12.1119392 C63.2188048,12.320059 62.027591,13.2158462 61.2308005,14.2224494 L61.8861721,15.9627765 C62.7702449,14.7165761 63.7087026,14.0686585 64.7037838,13.9278098 C65.9662002,13.749121 67.3866925,14.3661314 67.7461722,16.9058163 Z M44.7729921,19.8630178 L45.5252712,20.8219371 C45.7127387,19.8618429 46.3979361,18.8719163 47.6391298,18.303882 C48.8530446,17.7483319 50.1250028,18.0405176 50.6805528,19.2544324 C51.1861658,20.3592312 50.6956299,21.7384609 48.5405902,22.7247183 L46.9311301,23.4612904 C47.3909609,24.1416437 48.0299494,24.492562 48.9983534,24.0493703 C49.680328,23.7372635 50.4841259,23.0064873 50.7992126,22.4333858 L51.7866056,23.5816367 C51.4430847,24.2007436 50.493184,25.0808651 49.5520591,25.5115724 C47.91532,26.2606287 46.3671064,26.1938491 45.2310377,23.7114616 L43.6954722,20.3561466 L44.7729921,19.8630178 Z M47.8014451,19.6317765 C46.9830756,20.0063046 45.990412,21.1534398 46.3596301,22.32066 L47.8872532,21.6215408 C49.3057604,20.9723586 49.4407572,20.366202 49.2285246,19.9024593 C49.0225341,19.452356 48.4834197,19.3196697 47.8014451,19.6317765 Z M33.3274029,28.6005751 L29.2524039,32.1437917 L30.1874194,33.2191386 L32.0098495,31.6345334 L32.6299124,32.3476582 C33.5846124,33.445644 34.2002105,35.136639 32.955072,36.2192885 C32.6834054,36.455503 32.2847685,36.6828544 31.6809212,36.6513358 L32.5219289,38.0071957 C33.0903407,38.0894028 33.7576898,37.6681604 34.1085925,37.36305 C35.0481061,36.5461418 35.1647861,35.3315592 34.5353955,33.990471 L34.5806733,33.951102 L36.0663745,35.3625965 L37.8548463,33.8075181 L37.0182535,32.8453656 L36.056101,33.6819584 L33.3002658,30.5125148 L34.2624183,29.675922 L33.3274029,28.6005751 Z M20.5524066,49.5272314 L22.6398855,46.2684998 C21.3953729,45.7919358 20.4929149,46.7280019 20.0317277,47.4479542 C19.6676325,48.0163376 19.4308333,48.7197053 19.5218475,49.8290143 L18.0276854,49.352853 C18.009307,48.575092 18.2245793,47.3769651 18.9042236,46.3159828 C19.826598,44.8760781 21.8626379,43.8111056 23.9972334,45.1784852 C25.6771222,46.2545887 26.4040301,48.2343942 25.1661065,50.1668979 C23.9281829,52.0994015 22.0630063,51.8131039 20.8125628,51.0120946 L20.5524066,49.5272314 Z M23.9788167,49.4063435 C24.4319129,48.6990219 24.4520126,47.7499587 23.7054077,46.9688658 L21.8768408,49.8234137 C22.8419029,50.2634765 23.5338115,50.1010344 23.9788167,49.4063435 Z M11.2570618,87.8049804 L11.3155822,89.543996 L21.4348542,89.2034679 L21.3859191,87.749291 L17.7754188,86.1598216 C17.1811645,85.8946578 16.5434492,85.675982 16.5434492,85.675982 L16.5404222,85.5860329 C16.5404222,85.5860329 17.1774901,85.3394673 17.7380868,85.0504496 L21.2355822,83.2818198 L21.1846291,81.7676769 L11.0653571,82.108205 L11.1188326,83.6973055 L15.2864735,83.5570584 C16.0660323,83.5308251 17.6201049,83.3284434 17.6201049,83.3284434 L17.6221228,83.3884095 L14.3889254,84.9830518 L14.4343291,86.3322881 L17.7664058,87.6759825 L17.7684238,87.7359485 C17.7684238,87.7359485 16.2042615,87.6385 15.4247027,87.6647332 L11.2570618,87.8049804 Z M16.4953986,106.600812 L17.0439016,108.252097 L26.6526762,105.060377 L26.1940142,103.679561 L22.2812206,103.177394 C21.6362059,103.091335 20.9626711,103.062168 20.9626711,103.062168 L20.9343002,102.976756 C20.9343002,102.976756 21.4754876,102.559904 21.9313135,102.123988 L24.7849288,99.4374649 L24.3073529,97.9997075 L14.6985784,101.191428 L15.1997967,102.700361 L19.1571883,101.385845 C19.8974198,101.139965 21.3305981,100.505851 21.3305981,100.505851 L21.349512,100.562792 L18.7001174,103.007615 L19.1256801,104.288785 L22.7018556,104.634065 L22.7207695,104.691006 C22.7207695,104.691006 21.1930217,105.040415 20.4527902,105.286296 L16.4953986,106.600812 Z M26.8839793,123.162644 L28.1528537,124.98428 L30.5394709,119.592688 L36.460991,119.197184 L35.3207188,117.560173 L31.0974163,117.979269 L32.8601314,114.027676 L31.6255509,112.255273 L29.3037867,117.766214 L23.3174136,118.042369 L24.4233919,119.630147 L28.7201207,119.342708 L26.8839793,123.162644 Z M44.5137417,125.536855 L42.8652998,124.211765 L38.8366153,133.964007 L41.0462288,135.740192 L49.6928887,129.700083 L48.1029023,128.421981 L41.07433,133.742009 L40.8405084,133.554053 L44.5137417,125.536855 Z M64.300685,135.552373 L58.0302738,132.973547 L57.4312102,134.430169 L59.7618056,135.38867 L57.1088098,141.839425 L54.7782145,140.880924 L54.1791509,142.337546 L60.4495621,144.916372 L61.0486257,143.45975 L58.7180304,142.501248 L61.3710261,136.050493 L63.7016214,137.008995 L64.300685,135.552373 Z M80.8853164,137.374068 L74.1404176,136.685053 L73.9803589,138.251899 L76.4873124,138.507993 L75.7784811,145.446882 L73.2715276,145.190789 L73.1114689,146.757634 L79.8563676,147.446649 L80.0164263,145.879803 L77.5094728,145.623709 L78.2183042,138.68482 L80.7252577,138.940914 L80.8853164,137.374068 Z" transform="rotate(-88 79.042 79.087)"/>
  </g>
</svg>
