<svg xmlns="http://www.w3.org/2000/svg" width="145" height="47" viewBox="0 0 145 47">
  <g fill="none" fill-rule="evenodd">
    <g stroke="#FFF" stroke-linecap="round" stroke-width="4" transform="translate(19.845 8.617)">
      <path d="M0,14.7372881 L28.5766423,14.7372881"/>
      <polyline points="2.381 7.311 14.29 10.444 26.195 7.311"/>
      <polyline points="7.673 1.828 14.288 5.222 20.903 1.828"/>
      <path d="M14.2020708,-6.03961325e-14 L14.2020708,29.7666667"/>
    </g>
    <g stroke="#FFF" stroke-linecap="round" stroke-width="4" transform="translate(98.96 8.617)">
      <polyline points="0 7.311 11.908 10.444 23.814 7.311"/>
      <path d="M11.9931847,-1.20792265e-13 L11.9931847,20.1055556"/>
      <polyline points="1.323 29.767 11.907 19.844 22.491 29.767"/>
    </g>
    <g stroke="#FFF" stroke-linecap="round" stroke-width="4" transform="translate(61.651 9.139)">
      <path d="M0.279056295,0 C0.279056295,0 -1.93808452,9.84397044 10.8629979,14.3611111 C23.6640803,18.8782518 21.4469395,28.7222222 21.4469395,28.7222222" transform="matrix(-1 0 0 1 21.726 0)"/>
      <path d="M0.279056295,0 C0.279056295,0 -1.93808452,9.84397044 10.8629979,14.3611111 C23.6640803,18.8782518 21.4469395,28.7222222 21.4469395,28.7222222"/>
    </g>
    <path fill="#FFF" d="M1.98448905,47 L0,47 L0,0 L1.98448905,0 L11.9069343,0 L11.9069343,3.91666667 L3.9689781,3.91666667 L3.9689781,43.0833333 L11.9069343,43.0833333 L11.9069343,47 L1.98448905,47 Z"/>
    <path fill="#FFF" d="M135.077555,47 L133.093066,47 L133.093066,0 L135.077555,0 L145,0 L145,3.91666667 L137.062044,3.91666667 L137.062044,43.0833333 L145,43.0833333 L145,47 L135.077555,47 Z" transform="matrix(-1 0 0 1 278.093 0)"/>
  </g>
</svg>
